<?xml version="1.0" encoding="utf-8"?>
<!-- Generator: Adobe Illustrator 26.1.0, SVG Export Plug-In . SVG Version: 6.00 Build 0)  -->
<svg version="1.1" id="Layer_1" xmlns="http://www.w3.org/2000/svg" xmlns:xlink="http://www.w3.org/1999/xlink" x="0px" y="0px"
	 viewBox="0 0 1000.9 317.4" style="enable-background:new 0 0 1000.9 317.4;" xml:space="preserve">
<style type="text/css">
	.st0{display:none;}
	.st1{display:inline;fill:#EFF0ED;}
	.st2{opacity:0.21;}
	.st3{fill:#B5C3C2;}
	.st4{opacity:0.29;fill:#B5C3C2;enable-background:new    ;}
	.st5{fill:#95A9A7;}
	.st6{fill:#658280;}
	.st7{opacity:0.29;fill:#658280;enable-background:new    ;}
	.st8{opacity:0.52;}
	.st9{fill:#FFFFFF;}
	.st10{opacity:0.5;fill:#FFFFFF;enable-background:new    ;}
	.st11{opacity:0.33;fill:#FFFFFF;enable-background:new    ;}
	.st12{opacity:0.4;fill:#FFFFFF;enable-background:new    ;}
</style>
<g id="Bg" class="st0">
	<rect x="0.8" y="-0.1" class="st1" width="1000" height="315.2"/>
</g>
<g id="Shadow" class="st0">
</g>
<g id="Object" class="st2">
	<g>
		<g>
			<g>
				<rect x="293.1" y="117.6" class="st3" width="40.4" height="160.8"/>
				<rect x="299.7" y="106.1" class="st3" width="27.2" height="67.6"/>
				<rect x="305.8" y="98.8" class="st3" width="15.1" height="37.5"/>
				<polygon class="st3" points="318.5,118.1 308.2,118.1 308.2,92.5 311.9,92.5 315.6,92.5 318.5,92.5 				"/>
				<g>
					<polygon class="st3" points="312.7,106.9 311.5,106.9 311.5,81.4 311.9,81.4 312.3,81.4 312.7,81.4 					"/>
					<polygon class="st3" points="315.1,98.1 314,98.1 314,72.6 314.4,72.6 314.8,72.6 315.1,72.6 					"/>
				</g>
				<rect x="292.1" y="117.2" class="st3" width="42.6" height="1.7"/>
				<rect x="298.7" y="105.3" class="st3" width="29.2" height="1.6"/>
				<rect x="304.7" y="98.1" class="st3" width="16.8" height="1.3"/>
				<rect x="302.2" y="108.9" class="st4" width="1.3" height="7.1"/>
				<rect x="305.7" y="108.9" class="st4" width="1.3" height="7.1"/>
				<rect x="309.2" y="108.9" class="st4" width="1.3" height="7.1"/>
				<rect x="312.7" y="108.9" class="st4" width="1.3" height="7.1"/>
				<rect x="316.2" y="108.9" class="st4" width="1.3" height="7.1"/>
				<rect x="319.7" y="108.9" class="st4" width="1.3" height="7.1"/>
				<rect x="323.2" y="108.9" class="st4" width="1.3" height="7.1"/>
				<rect x="296.7" y="124.1" class="st3" width="3.1" height="8.4"/>
				<rect x="302.7" y="124.1" class="st4" width="3.1" height="8.4"/>
				<rect x="308.8" y="124.1" class="st3" width="3.1" height="8.4"/>
				<rect x="314.8" y="124.1" class="st3" width="3.1" height="8.4"/>
				<rect x="320.9" y="124.1" class="st3" width="3.1" height="8.4"/>
				<rect x="326.9" y="124.1" class="st3" width="3.1" height="8.4"/>
				<rect x="296.7" y="137.1" class="st3" width="3.1" height="8.4"/>
				<rect x="302.7" y="137.1" class="st3" width="3.1" height="8.4"/>
				<rect x="308.8" y="137.1" class="st3" width="3.1" height="8.4"/>
				<rect x="314.8" y="137.1" class="st4" width="3.1" height="8.4"/>
				<rect x="320.9" y="137.1" class="st3" width="3.1" height="8.4"/>
				<rect x="326.9" y="137.1" class="st3" width="3.1" height="8.4"/>
				<rect x="296.7" y="150.2" class="st3" width="3.1" height="8.4"/>
				<rect x="302.7" y="150.2" class="st3" width="3.1" height="8.4"/>
				<rect x="308.8" y="150.2" class="st3" width="3.1" height="8.4"/>
				<rect x="314.8" y="150.2" class="st3" width="3.1" height="8.4"/>
				<rect x="320.9" y="150.2" class="st4" width="3.1" height="8.4"/>
				<rect x="326.9" y="150.2" class="st4" width="3.1" height="8.4"/>
				<rect x="296.7" y="163.3" class="st4" width="3.1" height="8.4"/>
				<rect x="302.7" y="163.3" class="st3" width="3.1" height="8.4"/>
				<rect x="308.8" y="163.3" class="st3" width="3.1" height="8.4"/>
				<rect x="314.8" y="163.3" class="st3" width="3.1" height="8.4"/>
				<rect x="320.9" y="163.3" class="st3" width="3.1" height="8.4"/>
				<rect x="326.9" y="163.3" class="st3" width="3.1" height="8.4"/>
				<rect x="296.7" y="176.4" class="st3" width="3.1" height="8.4"/>
				<rect x="302.7" y="176.4" class="st4" width="3.1" height="8.4"/>
				<rect x="308.8" y="176.4" class="st3" width="3.1" height="8.4"/>
				<rect x="314.8" y="176.4" class="st4" width="3.1" height="8.4"/>
				<rect x="320.9" y="176.4" class="st3" width="3.1" height="8.4"/>
				<rect x="326.9" y="176.4" class="st3" width="3.1" height="8.4"/>
				<rect x="296.7" y="189.5" class="st3" width="3.1" height="8.4"/>
				<rect x="302.7" y="189.5" class="st3" width="3.1" height="8.4"/>
				<rect x="308.8" y="189.5" class="st3" width="3.1" height="8.4"/>
				<rect x="314.8" y="189.5" class="st3" width="3.1" height="8.4"/>
				<rect x="320.9" y="189.5" class="st3" width="3.1" height="8.4"/>
				<rect x="326.9" y="189.5" class="st4" width="3.1" height="8.4"/>
				<rect x="296.7" y="202.6" class="st3" width="3.1" height="8.4"/>
				<rect x="302.7" y="202.6" class="st4" width="3.1" height="8.4"/>
				<rect x="308.8" y="202.6" class="st4" width="3.1" height="8.4"/>
				<rect x="314.8" y="202.6" class="st3" width="3.1" height="8.4"/>
				<rect x="320.9" y="202.6" class="st3" width="3.1" height="8.4"/>
				<rect x="326.9" y="202.6" class="st3" width="3.1" height="8.4"/>
				<rect x="296.7" y="215.7" class="st3" width="3.1" height="8.4"/>
				<rect x="302.7" y="215.7" class="st3" width="3.1" height="8.4"/>
				<rect x="308.8" y="215.7" class="st3" width="3.1" height="8.4"/>
				<rect x="314.8" y="215.7" class="st3" width="3.1" height="8.4"/>
				<rect x="320.9" y="215.7" class="st4" width="3.1" height="8.4"/>
				<rect x="326.9" y="215.7" class="st3" width="3.1" height="8.4"/>
				<rect x="296.7" y="228.8" class="st3" width="3.1" height="8.4"/>
				<rect x="302.7" y="228.8" class="st4" width="3.1" height="8.4"/>
				<rect x="308.8" y="228.8" class="st3" width="3.1" height="8.4"/>
				<rect x="314.8" y="228.8" class="st3" width="3.1" height="8.4"/>
				<rect x="320.9" y="228.8" class="st3" width="3.1" height="8.4"/>
				<rect x="326.9" y="228.8" class="st3" width="3.1" height="8.4"/>
				<rect x="296.7" y="241.9" class="st3" width="3.1" height="8.4"/>
				<rect x="302.7" y="241.9" class="st3" width="3.1" height="8.4"/>
				<rect x="308.8" y="241.9" class="st3" width="3.1" height="8.4"/>
				<rect x="314.8" y="241.9" class="st4" width="3.1" height="8.4"/>
				<rect x="320.9" y="241.9" class="st3" width="3.1" height="8.4"/>
				<rect x="326.9" y="241.9" class="st4" width="3.1" height="8.4"/>
				<rect x="296.7" y="255" class="st4" width="3.1" height="8.4"/>
				<rect x="302.7" y="255" class="st3" width="3.1" height="8.4"/>
				<rect x="308.8" y="255" class="st4" width="3.1" height="8.4"/>
				<rect x="314.8" y="255" class="st3" width="3.1" height="8.4"/>
				<rect x="320.9" y="255" class="st3" width="3.1" height="8.4"/>
				<rect x="326.9" y="255" class="st3" width="3.1" height="8.4"/>
			</g>
			<g>
				<rect x="175.8" y="123.8" class="st3" width="64.9" height="135.5"/>
				<rect x="174" y="121.4" class="st3" width="68.6" height="3.8"/>
				<rect x="178" y="116.5" class="st3" width="60.6" height="18.2"/>
				<rect x="182.6" y="109.1" class="st3" width="24" height="19.9"/>
				<polygon class="st3" points="196.5,114.7 182.6,114.7 182.6,104.2 192.6,104.2 				"/>
				<rect x="188.2" y="95.5" class="st3" width="1.3" height="23.3"/>
				<path class="st3" d="M190.1,94.3c0,0.7-0.5,1.2-1.2,1.2s-1.2-0.5-1.2-1.2s0.5-1.2,1.2-1.2S190.1,93.7,190.1,94.3z"/>
			</g>
			<polygon class="st3" points="778.5,269.5 707.4,269.5 698.6,70.4 778.5,87 			"/>
			<polygon class="st3" points="468.4,155.8 468.4,89.2 457.2,89.2 457.2,71.4 453.3,71.4 453.3,45.2 431.3,45.2 431.3,26 429.4,26 
				429.4,45.2 425.1,45.2 425.1,21.1 423.1,21.1 423.1,45.2 409.2,45.2 409.2,89.2 402.1,89.2 402.1,155.8 395.9,155.8 395.9,277.1 
				472.7,277.1 472.7,155.8 			"/>
		</g>
		<rect x="85" y="267.1" class="st3" width="849.4" height="20.2"/>
		<polygon class="st5" points="585,282.3 547.4,282.3 562.1,207 585,207 		"/>
		<g>
			<rect x="54.6" y="285.3" class="st5" width="891.8" height="31.9"/>
			<polygon class="st5" points="554.2,142.9 554.2,109.6 542.1,109.6 542.1,96.9 535.6,96.9 535.6,86.2 533.4,86.2 533.4,67.9 
				532.8,67.9 532.8,86.2 530.5,86.2 530.5,96.9 524.1,96.9 524.1,109.6 512.1,109.6 512.1,142.9 509.6,142.9 509.6,203.5 
				491,203.5 491,272.6 509.6,272.6 528.2,272.6 556.6,272.6 556.6,142.9 			"/>
			<polygon class="st5" points="623.6,181.3 565.1,181.3 565.1,182.3 567.8,182.3 567.8,281.2 620.9,281.2 620.9,182.3 623.6,182.3 
							"/>
			<rect x="305.2" y="205.9" class="st5" width="51.8" height="82.3"/>
			<rect x="208.3" y="248.1" class="st5" width="89.1" height="40.2"/>
			<rect x="256.1" y="158.4" class="st5" width="19.6" height="98.6"/>
			<rect x="260.4" y="132.1" class="st5" width="1" height="53.6"/>
			<rect x="263.7" y="136.1" class="st5" width="1" height="53.6"/>
			<rect x="257.6" y="152.3" class="st5" width="12" height="13.2"/>
			<rect x="293.9" y="220.6" class="st5" width="34.1" height="67.6"/>
			<rect x="365.4" y="149.1" class="st5" width="63.9" height="139.1"/>
			<rect x="371.7" y="144.3" class="st5" width="51.4" height="23.2"/>
			<rect x="360.5" y="152" class="st5" width="73.8" height="1.6"/>
			<rect x="353.9" y="218" class="st5" width="30.1" height="70.3"/>
			<rect x="138.1" y="215.3" class="st5" width="34.6" height="72.9"/>
			<g>
				<rect x="149.3" y="195.5" class="st5" width="68.9" height="92.8"/>
				<rect x="145.3" y="191.9" class="st5" width="74.7" height="3.6"/>
				<rect x="152.4" y="182.3" class="st5" width="30.3" height="18.8"/>
				<rect x="192.5" y="182.3" class="st5" width="5.1" height="11.4"/>
				<rect x="202.7" y="182.3" class="st5" width="5.6" height="11.4"/>
			</g>
			<rect x="119.3" y="260" class="st5" width="36.1" height="28.2"/>
			<rect x="105.7" y="248.1" class="st5" width="17.1" height="40.2"/>
			<rect x="85" y="274.1" class="st5" width="29.2" height="14.1"/>
			<rect x="423.1" y="257" class="st5" width="359.8" height="31.3"/>
			<path class="st5" d="M754.2,170.5c-2.3,0-4.1,1.7-4.3,4l-5.1-0.2c0-0.5,0-1,0-1.5c0-6.3-1.1-12.4-3.2-18.2l4.2-1.6
				c0.7,1.5,2.2,2.6,4,2.6c2.4,0,4.3-1.9,4.3-4.3c0-2.4-1.9-4.3-4.3-4.3s-4.3,1.9-4.3,4.3c0,0.4,0.1,0.9,0.2,1.3l-4.2,1.6
				c-2.4-6.5-6.1-12.4-10.9-17.6l3.3-3.1c0.8,0.7,1.8,1.2,3,1.2c2.4,0,4.3-1.9,4.3-4.3c0-2.4-1.9-4.3-4.3-4.3s-4.3,1.9-4.3,4.3
				c0,1.1,0.4,2,1,2.8l-3.3,3.1c-0.3-0.4-0.7-0.7-1-1.1c-5-5-10.8-8.9-17.2-11.5l1.8-4.4c0.4,0.1,0.9,0.2,1.3,0.2
				c2.4,0,4.3-1.9,4.3-4.3s-1.9-4.3-4.3-4.3s-4.3,1.9-4.3,4.3c0,1.8,1.1,3.3,2.6,4l-1.8,4.4c-5.7-2.3-11.8-3.6-18.1-3.8l0.2-6.1h0.1
				c2.4,0,4.3-1.9,4.3-4.3s-1.9-4.3-4.3-4.3s-4.3,1.9-4.3,4.3c0,2.2,1.6,4,3.7,4.3l-0.2,6.1c-0.5,0-1,0-1.5,0c-6,0-11.9,1-17.5,2.9
				l-1.7-4.9c1.6-0.6,2.7-2.2,2.7-4c0-2.4-1.9-4.3-4.3-4.3s-4.3,1.9-4.3,4.3s1.9,4.3,4.3,4.3c0.4,0,0.8-0.1,1.2-0.2l1.7,4.9
				c-6.7,2.4-13,6.2-18.3,11.2l-3.2-3.4c0.7-0.8,1.1-1.8,1.1-2.9c0-2.4-1.9-4.3-4.3-4.3s-4.3,1.9-4.3,4.3s1.9,4.3,4.3,4.3
				c1.1,0,2.1-0.4,2.8-1.1l3.2,3.4c-0.4,0.3-0.7,0.7-1.1,1c-4.5,4.5-8,9.6-10.6,15.1l-4-1.9c0.1-0.4,0.2-0.9,0.2-1.4
				c0-2.4-1.9-4.3-4.3-4.3c-2.4,0-4.3,1.9-4.3,4.3s1.9,4.3,4.3,4.3c1.7,0,3.2-1,3.9-2.5l4,1.8c-2.9,6.3-4.5,13.1-4.7,20.2l-5.2-0.2
				c-0.1-2.3-2-4.2-4.3-4.2c-2.4,0-4.3,1.9-4.3,4.3c0,2.4,1.9,4.3,4.3,4.3c2.3,0,4.1-1.7,4.3-4l5.2,0.2c0,0.5,0,1,0,1.5
				c0,6.3,1.1,12.4,3.2,18.2l-4.2,1.6c-0.7-1.5-2.2-2.6-4-2.6c-2.4,0-4.3,1.9-4.3,4.3c0,2.4,1.9,4.3,4.3,4.3s4.3-1.9,4.3-4.3
				c0-0.4-0.1-0.9-0.2-1.3l4.2-1.6c2.4,6.5,6.1,12.4,10.9,17.6l-3.3,3.1c-0.8-0.7-1.8-1.2-3-1.2c-2.4,0-4.3,1.9-4.3,4.3
				c0,2.4,1.9,4.3,4.3,4.3s4.3-1.9,4.3-4.3c0-1.1-0.4-2-1-2.8l3.3-3.1c0.3,0.4,0.7,0.7,1,1.1c3.4,3.4,7.1,6.2,11.2,8.6L639,267.1
				h-4.7v1.4H632v2.7h119.1v-2.7h-2.3v-1.4h-4.7l-26-48.1c3.5-2,6.7-4.4,9.7-7.2l4.2,4.5c-0.9,0.8-1.5,2-1.5,3.3
				c0,2.4,1.9,4.3,4.3,4.3s4.3-1.9,4.3-4.3c0-2.4-1.9-4.3-4.3-4.3c-0.9,0-1.8,0.3-2.5,0.8l-4.3-4.5c0.4-0.3,0.7-0.7,1.1-1
				c4.5-4.5,8-9.6,10.6-15.1l4.7,2.2c-0.1,0.3-0.1,0.7-0.1,1.1c0,2.4,1.9,4.3,4.3,4.3s4.3-1.9,4.3-4.3c0-2.4-1.9-4.3-4.3-4.3
				c-1.9,0-3.4,1.2-4,2.8l-4.6-2.1c2.9-6.3,4.5-13.1,4.7-20.2l5.1,0.2c0.1,2.3,2,4.2,4.3,4.2c2.4,0,4.3-1.9,4.3-4.3
				C758.5,172.4,756.6,170.5,754.2,170.5z M743.4,172.8c0,0.5,0,1,0,1.4l-14.9-0.5c0-0.3,0-0.6,0-1c0-4.4-0.8-8.6-2.2-12.5l14-5.2
				C742.3,160.7,743.4,166.6,743.4,172.8z M727.7,173.7l-33.3-1.1c0-0.2,0-0.4-0.1-0.6l31.2-11.5c1.4,3.8,2.1,8,2.1,12.3
				C727.8,173.1,727.8,173.4,727.7,173.7z M655.4,171.8l33.3,1.1c0,0.2,0,0.4,0.1,0.6L657.5,185c-1.4-3.8-2.1-8-2.1-12.3
				C655.4,172.5,655.4,172.1,655.4,171.8z M693.8,171l24.3-22.8c3.2,3.4,5.7,7.4,7.3,11.8l-31.2,11.5
				C694.1,171.3,694,171.1,693.8,171z M693.5,170.6c-0.2-0.2-0.4-0.3-0.6-0.4l12.6-30.8c4.7,2,8.8,4.9,12.3,8.5L693.5,170.6z
				 M692.4,170c-0.2-0.1-0.4-0.1-0.5-0.1l1.1-33.3c4.3,0.2,8.3,1.1,12.1,2.6L692.4,170z M691.4,169.9c-0.2,0-0.4,0-0.6,0.1
				l-11.1-31.4c3.7-1.3,7.7-2,11.8-2c0.3,0,0.6,0,0.9,0L691.4,169.9z M690.4,170.1c-0.2,0.1-0.4,0.2-0.6,0.4L667,146.2
				c3.5-3.3,7.7-5.8,12.3-7.5L690.4,170.1z M689.4,170.8c-0.1,0.2-0.3,0.3-0.4,0.5l-30.2-14c1.9-4.1,4.6-7.8,7.8-10.8L689.4,170.8z
				 M688.8,171.8c-0.1,0.2-0.1,0.4-0.2,0.7l-33.3-1.1c0.2-4.8,1.3-9.4,3.2-13.5L688.8,171.8z M688.9,174c0.1,0.2,0.2,0.3,0.3,0.5
				l-0.2,0.4l-24,22.5c-3.1-3.4-5.7-7.4-7.3-11.8L688.9,174z M688.3,176.2L673.2,204c-2.9-1.7-5.6-3.8-7.9-6.3L688.3,176.2z
				 M689.9,175.2c0.1,0.1,0.2,0.1,0.3,0.2l-12.6,30.8c-1.2-0.5-2.4-1.1-3.5-1.7L689.9,175.2z M690.7,175.5c0.2,0.1,0.4,0.1,0.5,0.1
				l-1.1,33.3c-4.3-0.2-8.3-1.1-12.1-2.6L690.7,175.5z M691.6,209c-0.3,0-0.6,0-0.9,0l1.1-33.3c0.2,0,0.4,0,0.6-0.1l11.1,31.4
				C699.7,208.3,695.7,209,691.6,209z M692.8,175.4c0.2-0.1,0.3-0.2,0.5-0.3l15.9,29.3c-1.7,0.9-3.4,1.7-5.3,2.4L692.8,175.4z
				 M695.4,177.2l20.7,22.1c-1.9,1.8-4,3.3-6.2,4.6L695.4,177.2z M694.5,175.6l-0.6-1.1c0.1-0.1,0.1-0.2,0.2-0.3l30.2,14
				c-1.9,4.1-4.6,7.8-7.8,10.8L694.5,175.6z M694.3,173.8c0.1-0.2,0.1-0.4,0.2-0.7l33.3,1.1c-0.2,4.8-1.3,9.4-3.2,13.5L694.3,173.8z
				 M677.3,206.8l-5.7,13.8c-1.7-0.7-3.4-1.5-5.1-2.4l7.1-13.1C674.9,205.7,676.1,206.3,677.3,206.8z M677.8,207
				c3.8,1.6,8,2.5,12.4,2.6l-0.5,14.9c-6.1-0.2-12-1.5-17.6-3.7L677.8,207z M690.6,209.7c0.3,0,0.6,0,1,0c4.2,0,8.3-0.7,12-2l5,14.1
				c-5.4,1.9-11.1,2.8-17,2.8c-0.5,0-1,0-1.4,0L690.6,209.7z M704.1,207.5c1.9-0.7,3.7-1.5,5.4-2.4l7.1,13.1
				c-2.4,1.3-4.9,2.5-7.5,3.4L704.1,207.5z M740.2,154.6l-14,5.2c-1.7-4.5-4.3-8.6-7.5-12.1l10.9-10.2
				C734.2,142.5,737.8,148.3,740.2,154.6z M728.2,136.1c0.3,0.3,0.7,0.7,1,1l-10.9,10.2c-3.5-3.7-7.8-6.7-12.5-8.7l5.7-13.8
				C717.7,127.4,723.3,131.2,728.2,136.1z M711,124.7l-5.7,13.8c-3.8-1.6-8-2.5-12.4-2.6l0.5-14.9
				C699.6,121.2,705.5,122.5,711,124.7z M691.6,120.9c0.5,0,1,0,1.4,0l-0.5,14.9c-0.3,0-0.6,0-1,0c-4.2,0-8.3,0.7-12,2l-5-14.1
				C679.9,121.9,685.7,120.9,691.6,120.9z M674.1,123.9l5,14.1c-4.7,1.7-9,4.3-12.6,7.6l-10.2-10.9
				C661.5,129.9,667.5,126.3,674.1,123.9z M654.9,136.1c0.3-0.3,0.7-0.7,1-1l10.2,10.9c-3.3,3.1-6,6.9-8,11.1l-13.6-6.3
				C647.1,145.4,650.6,140.4,654.9,136.1z M644.4,151.2l13.6,6.3c-1.9,4.2-3.1,8.9-3.3,13.8l-14.9-0.5
				C640,164,641.6,157.3,644.4,151.2z M639.7,172.8c0-0.5,0-1,0-1.4l14.9,0.5c0,0.3,0,0.6,0,1c0,4.4,0.8,8.6,2.2,12.5l-14,5.2
				C640.8,184.9,639.7,178.9,639.7,172.8z M643,190.9l14-5.2c1.7,4.5,4.3,8.6,7.5,12.1L653.6,208C648.9,203,645.3,197.2,643,190.9z
				 M654.9,209.4c-0.3-0.3-0.7-0.7-1-1l10.9-10.2c2.4,2.5,5.1,4.7,8.1,6.4l-7.1,13.2C661.8,215.5,658.2,212.7,654.9,209.4z
				 M743.1,267.1h-103l25.8-47.6c1.7,0.9,3.4,1.8,5.2,2.5l-1.8,4.4c-0.4-0.1-0.9-0.2-1.3-0.2c-2.4,0-4.3,1.9-4.3,4.3
				c0,2.4,1.9,4.3,4.3,4.3s4.3-1.9,4.3-4.3c0-1.8-1.1-3.3-2.6-4l1.8-4.4c5.7,2.3,11.8,3.6,18.1,3.8l-0.1,4.5c-2.3,0.1-4.2,2-4.2,4.3
				c0,2.4,1.9,4.3,4.3,4.3s4.3-1.9,4.3-4.3c0-2.3-1.7-4.1-3.9-4.3l0.1-4.5c0.5,0,1,0,1.5,0c6,0,11.9-1,17.5-2.9l1.6,4.4
				c-1.5,0.7-2.5,2.2-2.5,3.9c0,2.4,1.9,4.3,4.3,4.3c2.4,0,4.3-1.9,4.3-4.3c0-2.4-1.9-4.3-4.3-4.3c-0.5,0-1,0.1-1.4,0.2l-1.5-4.4
				c2.7-1,5.3-2.1,7.7-3.5L743.1,267.1z M717.4,217.7l-7.1-13.2c2.3-1.3,4.4-2.9,6.4-4.7l10.2,10.9
				C723.9,213.5,720.8,215.8,717.4,217.7z M728.2,209.4c-0.3,0.3-0.7,0.7-1,1L717,199.5c3.3-3.1,6-6.9,8-11.1l13.6,6.3
				C736,200.1,732.6,205.1,728.2,209.4z M738.8,194.3l-13.6-6.3c1.9-4.2,3.1-8.9,3.3-13.8l14.9,0.5
				C743.1,181.6,741.5,188.2,738.8,194.3z"/>
			<rect x="764.6" y="206.8" class="st5" width="55.6" height="81.4"/>
			<rect x="812.1" y="238.5" class="st5" width="55.6" height="49.3"/>
			<rect x="596.6" y="231.2" class="st5" width="31.2" height="41.4"/>
			<rect x="792.4" y="129.4" class="st5" width="39.3" height="158.8"/>
			<polygon class="st5" points="896.4,288.2 844.6,288.2 844.6,195.5 883.9,195.5 			"/>
			<rect x="873.7" y="267.1" class="st5" width="45.4" height="21.2"/>
			<rect x="821.6" y="96.2" class="st5" width="1.4" height="43.2"/>
			<rect x="826.1" y="105.5" class="st5" width="1.4" height="43.2"/>
			<rect x="817.4" y="111.4" class="st5" width="1.4" height="43.2"/>
			<rect x="846.6" y="188" class="st5" width="18.6" height="14.6"/>
			<rect x="848.7" y="182.8" class="st5" width="14.5" height="8.2"/>
			<rect x="872.6" y="192.3" class="st5" width="3.6" height="5.9"/>
			<rect x="877.4" y="186.9" class="st5" width="5.1" height="11.3"/>
		</g>
		<g>
			<g>
				<rect x="596.4" y="165.2" class="st6" width="47.1" height="151.9"/>
				<rect x="592.9" y="166.1" class="st6" width="54.2" height="1.5"/>
				<rect x="594.4" y="187.5" class="st6" width="51.2" height="1.5"/>
				<rect x="594.4" y="208.1" class="st6" width="51.2" height="1.5"/>
				<rect x="594.4" y="228.8" class="st6" width="51.2" height="1.5"/>
				<rect x="594.4" y="249.4" class="st6" width="51.2" height="1.5"/>
				<rect x="594.4" y="270.1" class="st6" width="51.2" height="1.5"/>
				<rect x="594.4" y="290.8" class="st6" width="51.2" height="1.5"/>
				<rect x="591.1" y="161.9" class="st6" width="57.7" height="4.2"/>
				<rect x="600.7" y="172.7" class="st7" width="4.9" height="12.1"/>
				<rect x="611.6" y="172.7" class="st6" width="4.9" height="12.1"/>
				<rect x="622.6" y="172.7" class="st6" width="4.9" height="12.1"/>
				<rect x="633.5" y="172.7" class="st6" width="4.9" height="12.1"/>
				<rect x="600.7" y="192.5" class="st6" width="4.9" height="12.1"/>
				<rect x="611.6" y="192.5" class="st7" width="4.9" height="12.1"/>
				<rect x="622.6" y="192.5" class="st6" width="4.9" height="12.1"/>
				<rect x="633.5" y="192.5" class="st6" width="4.9" height="12.1"/>
				<rect x="600.7" y="213.2" class="st6" width="4.9" height="12.1"/>
				<rect x="611.6" y="213.2" class="st6" width="4.9" height="12.1"/>
				<rect x="622.6" y="213.2" class="st6" width="4.9" height="12.1"/>
				<rect x="633.5" y="213.2" class="st7" width="4.9" height="12.1"/>
				<rect x="600.7" y="233.8" class="st6" width="4.9" height="12.1"/>
				<rect x="611.6" y="233.8" class="st7" width="4.9" height="12.1"/>
				<rect x="622.6" y="233.8" class="st7" width="4.9" height="12.1"/>
				<rect x="633.5" y="233.8" class="st6" width="4.9" height="12.1"/>
				<rect x="600.7" y="254.5" class="st7" width="4.9" height="12.1"/>
				<rect x="611.6" y="254.5" class="st6" width="4.9" height="12.1"/>
				<rect x="622.6" y="254.5" class="st6" width="4.9" height="12.1"/>
				<rect x="633.5" y="254.5" class="st6" width="4.9" height="12.1"/>
				<rect x="600.7" y="275.1" class="st6" width="4.9" height="12.1"/>
				<rect x="611.6" y="275.1" class="st6" width="4.9" height="12.1"/>
				<rect x="622.6" y="275.1" class="st7" width="4.9" height="12.1"/>
				<rect x="633.5" y="275.1" class="st6" width="4.9" height="12.1"/>
				<rect x="600.7" y="295.8" class="st6" width="4.9" height="12.1"/>
				<rect x="611.6" y="295.8" class="st7" width="4.9" height="12.1"/>
				<rect x="622.6" y="295.8" class="st6" width="4.9" height="12.1"/>
				<rect x="633.5" y="295.8" class="st7" width="4.9" height="12.1"/>
				<rect x="599.4" y="156.1" class="st6" width="16" height="7.9"/>
				<rect x="598.3" y="155.9" class="st6" width="18.2" height="1.3"/>
			</g>
			<g>
				<polygon class="st6" points="528.9,317.1 466.1,317.1 466.1,172.8 528.9,157.4 				"/>
				<rect x="463.4" y="170.3" class="st6" width="5.5" height="146.8"/>
				<rect x="479.1" y="166.1" class="st6" width="5.5" height="151"/>
				<rect x="494.7" y="161.8" class="st6" width="5.5" height="155.3"/>
				<rect x="510.4" y="158.3" class="st6" width="5.5" height="158.8"/>
				<rect x="526.1" y="154.6" class="st6" width="5.5" height="162.5"/>
				<rect x="470.3" y="182.6" class="st7" width="7.3" height="11.2"/>
				<rect x="486" y="182.6" class="st7" width="7.3" height="11.2"/>
				<rect x="501.7" y="182.6" class="st6" width="7.3" height="11.2"/>
				<rect x="517.4" y="182.6" class="st7" width="7.3" height="11.2"/>
				<rect x="470.3" y="202" class="st6" width="7.3" height="11.2"/>
				<rect x="486" y="202" class="st6" width="7.3" height="11.2"/>
				<rect x="501.7" y="202" class="st7" width="7.3" height="11.2"/>
				<rect x="517.4" y="202" class="st7" width="7.3" height="11.2"/>
				<rect x="470.3" y="221.4" class="st7" width="7.3" height="11.2"/>
				<rect x="486" y="221.4" class="st7" width="7.3" height="11.2"/>
				<rect x="501.7" y="221.4" class="st7" width="7.3" height="11.2"/>
				<rect x="517.4" y="221.4" class="st6" width="7.3" height="11.2"/>
				<rect x="470.3" y="240.8" class="st7" width="7.3" height="11.2"/>
				<rect x="486" y="240.8" class="st6" width="7.3" height="11.2"/>
				<rect x="501.7" y="240.8" class="st7" width="7.3" height="11.2"/>
				<rect x="517.4" y="240.8" class="st7" width="7.3" height="11.2"/>
				<rect x="470.3" y="260.3" class="st7" width="7.3" height="11.2"/>
				<rect x="486" y="260.3" class="st7" width="7.3" height="11.2"/>
				<rect x="501.7" y="260.3" class="st6" width="7.3" height="11.2"/>
				<rect x="517.4" y="260.3" class="st7" width="7.3" height="11.2"/>
				<rect x="470.3" y="279.7" class="st6" width="7.3" height="11.2"/>
				<rect x="486" y="279.7" class="st6" width="7.3" height="11.2"/>
				<rect x="501.7" y="279.7" class="st7" width="7.3" height="11.2"/>
				<rect x="517.4" y="279.7" class="st7" width="7.3" height="11.2"/>
				<rect x="470.3" y="299.1" class="st7" width="7.3" height="11.2"/>
				<rect x="486" y="299.1" class="st6" width="7.3" height="11.2"/>
				<rect x="501.7" y="299.1" class="st7" width="7.3" height="11.2"/>
				<rect x="517.4" y="299.1" class="st6" width="7.3" height="11.2"/>
			</g>
			<polygon class="st6" points="287.1,179.7 287.1,181.2 285.6,181.2 285.6,185.5 311.8,185.5 311.8,317.1 268.7,317.1 268.7,192.3 
				268.7,185.5 268.7,181.2 267.2,181.2 267.2,179.7 			"/>
			<rect x="360.5" y="239.5" class="st6" width="36.9" height="77.6"/>
			<g>
				<rect x="199.6" y="221.7" class="st6" width="30" height="95.4"/>
				<rect x="223.7" y="241.6" class="st6" width="32.7" height="75.5"/>
				<rect x="210.4" y="217.9" class="st6" width="13.3" height="11.4"/>
				<rect x="225.9" y="240.3" class="st6" width="34.9" height="2.8"/>
			</g>
			<rect x="252.8" y="274" class="st6" width="36.7" height="43.1"/>
			<rect x="134.3" y="238.9" class="st6" width="29.8" height="78.2"/>
			<rect x="108.5" y="277.9" class="st6" width="39.2" height="39.2"/>
			<rect x="65.3" y="271.5" class="st6" width="24.5" height="45.6"/>
			<rect x="85" y="302.8" class="st6" width="58" height="14.3"/>
			<rect x="43" y="298.2" class="st6" width="29.7" height="18.9"/>
			<rect x="164.2" y="288.2" class="st6" width="46.2" height="28.9"/>
			<rect x="299.7" y="304.7" class="st6" width="72" height="12.4"/>
			<rect x="427.4" y="304.7" class="st6" width="72" height="12.4"/>
			<polygon class="st6" points="368.9,268.2 341.6,268.2 330,310.9 368.9,310.9 			"/>
			<rect x="381.6" y="206" class="st6" width="0.8" height="47.4"/>
			<rect x="385.4" y="222" class="st6" width="1" height="28"/>
			<rect x="379.9" y="227" class="st6" width="13.8" height="13.8"/>
			<rect x="377.6" y="225.9" class="st6" width="18.3" height="1.2"/>
			<rect x="390.7" y="277.1" class="st6" width="44.7" height="40"/>
			<rect x="426.9" y="233" class="st6" width="28.7" height="77.2"/>
			<rect x="539.1" y="247.5" class="st6" width="45.9" height="69.6"/>
			<rect x="524.7" y="291.5" class="st6" width="52.3" height="25.6"/>
			<rect x="582.5" y="307.9" class="st6" width="34" height="9.2"/>
			<rect x="634.9" y="291.5" class="st6" width="55.3" height="25.6"/>
			<g>
				<rect x="657" y="224.3" class="st6" width="68.9" height="92.8"/>
				<rect x="655.1" y="220.7" class="st6" width="74.7" height="3.6"/>
				<rect x="692.5" y="211.2" class="st6" width="30.3" height="18.8"/>
				<rect x="677.5" y="211.2" class="st6" width="5.1" height="11.4"/>
				<rect x="666.8" y="211.2" class="st6" width="5.6" height="11.4"/>
			</g>
			<g>
				<rect x="773.1" y="181.6" class="st6" width="54.5" height="135.5"/>
				<rect x="771.6" y="179.4" class="st6" width="57.6" height="3.8"/>
				<rect x="775" y="174.4" class="st6" width="50.8" height="18.2"/>
				<rect x="801.9" y="166.9" class="st6" width="20.1" height="19.9"/>
				<polygon class="st6" points="810.3,172.6 821.9,172.6 821.9,162.1 813.6,162.1 				"/>
				<rect x="816.2" y="153.4" class="st6" width="1.1" height="23.3"/>
				<path class="st6" d="M815.7,152.2c0,0.7,0.5,1.2,1,1.2s1-0.5,1-1.2s-0.5-1.2-1-1.2S815.7,151.5,815.7,152.2z"/>
			</g>
			<rect x="820.2" y="261.2" class="st6" width="24.4" height="55.9"/>
			<rect x="750.7" y="233.9" class="st6" width="27.8" height="83.2"/>
			<polygon class="st6" points="764.6,317.1 725.4,317.1 725.4,272.6 758.5,287.3 			"/>
			<rect x="836.6" y="292.9" class="st6" width="59.9" height="24.2"/>
			<rect x="874.3" y="220.6" class="st6" width="34.8" height="96.5"/>
			<rect x="901" y="299.1" class="st6" width="57.6" height="18"/>
			<rect x="872.6" y="218.9" class="st6" width="38.1" height="3.2"/>
			<rect x="903.7" y="205.3" class="st6" width="0.8" height="19.4"/>
			<rect x="898.6" y="207.7" class="st6" width="0.8" height="15.6"/>
			<polygon class="st6" points="922,257 906.5,257 906.5,301.2 928.6,301.2 			"/>
		</g>
	</g>
	<g>
		<g class="st8">
			<rect x="202.7" y="225.5" class="st9" width="2.3" height="2.3"/>
			<rect x="207.3" y="225.5" class="st9" width="2.3" height="2.3"/>
			<rect x="202.7" y="230.9" class="st9" width="2.3" height="2.3"/>
			<rect x="207.3" y="230.9" class="st9" width="2.3" height="2.3"/>
			<rect x="202.7" y="236" class="st9" width="2.3" height="2.3"/>
			<rect x="212.3" y="225.5" class="st9" width="2.3" height="2.3"/>
		</g>
		<rect x="368.9" y="157.3" class="st10" width="1.5" height="8.6"/>
		<rect x="374.3" y="157.3" class="st10" width="1.5" height="8.6"/>
		<rect x="379.6" y="157.3" class="st10" width="1.5" height="8.6"/>
		<rect x="384.9" y="157.3" class="st10" width="1.5" height="8.6"/>
		<rect x="390.3" y="157.3" class="st10" width="1.5" height="8.6"/>
		<rect x="395.6" y="157.3" class="st10" width="1.5" height="8.6"/>
		<rect x="401" y="157.3" class="st10" width="1.5" height="8.6"/>
		<rect x="406.3" y="157.3" class="st10" width="1.5" height="8.6"/>
		<rect x="411.6" y="157.3" class="st10" width="1.5" height="8.6"/>
		<rect x="417" y="157.3" class="st10" width="1.5" height="8.6"/>
		<rect x="422.3" y="157.3" class="st10" width="1.5" height="8.6"/>
		<rect x="368.9" y="169.3" class="st10" width="1.5" height="8.6"/>
		<rect x="374.3" y="169.3" class="st10" width="1.5" height="8.6"/>
		<rect x="379.6" y="169.3" class="st10" width="1.5" height="8.6"/>
		<rect x="384.9" y="169.3" class="st10" width="1.5" height="8.6"/>
		<rect x="390.3" y="169.3" class="st10" width="1.5" height="8.6"/>
		<rect x="395.6" y="169.3" class="st10" width="1.5" height="8.6"/>
		<rect x="401" y="169.3" class="st10" width="1.5" height="8.6"/>
		<rect x="406.3" y="169.3" class="st10" width="1.5" height="8.6"/>
		<rect x="411.6" y="169.3" class="st10" width="1.5" height="8.6"/>
		<rect x="417" y="169.3" class="st10" width="1.5" height="8.6"/>
		<rect x="422.3" y="169.3" class="st10" width="1.5" height="8.6"/>
		<rect x="368.9" y="181.2" class="st10" width="1.5" height="8.6"/>
		<rect x="374.3" y="181.2" class="st10" width="1.5" height="8.6"/>
		<rect x="379.6" y="181.2" class="st10" width="1.5" height="8.6"/>
		<rect x="384.9" y="181.2" class="st10" width="1.5" height="8.6"/>
		<rect x="390.3" y="181.2" class="st10" width="1.5" height="8.6"/>
		<rect x="395.6" y="181.2" class="st10" width="1.5" height="8.6"/>
		<rect x="401" y="181.2" class="st10" width="1.5" height="8.6"/>
		<rect x="406.3" y="181.2" class="st10" width="1.5" height="8.6"/>
		<rect x="411.6" y="181.2" class="st10" width="1.5" height="8.6"/>
		<rect x="417" y="181.2" class="st10" width="1.5" height="8.6"/>
		<rect x="422.3" y="181.2" class="st10" width="1.5" height="8.6"/>
		<rect x="384.9" y="193.1" class="st10" width="1.5" height="8.6"/>
		<rect x="390.3" y="193.1" class="st10" width="1.5" height="8.6"/>
		<rect x="395.6" y="193.1" class="st10" width="1.5" height="8.6"/>
		<rect x="401" y="193.1" class="st10" width="1.5" height="8.6"/>
		<rect x="406.3" y="193.1" class="st10" width="1.5" height="8.6"/>
		<rect x="411.6" y="193.1" class="st10" width="1.5" height="8.6"/>
		<rect x="417" y="193.1" class="st10" width="1.5" height="8.6"/>
		<rect x="422.3" y="193.1" class="st10" width="1.5" height="8.6"/>
		<rect x="390.3" y="205.7" class="st10" width="1.5" height="8.6"/>
		<rect x="395.6" y="205.7" class="st10" width="1.5" height="8.6"/>
		<rect x="401" y="205.7" class="st10" width="1.5" height="8.6"/>
		<rect x="406.3" y="205.7" class="st10" width="1.5" height="8.6"/>
		<rect x="411.6" y="205.7" class="st10" width="1.5" height="8.6"/>
		<rect x="417" y="205.7" class="st10" width="1.5" height="8.6"/>
		<rect x="422.3" y="205.7" class="st10" width="1.5" height="8.6"/>
		<rect x="472.1" y="178.6" class="st11" width="3.7" height="9.3"/>
		<rect x="472.1" y="196.4" class="st11" width="3.7" height="9.3"/>
		<rect x="472.1" y="214.1" class="st11" width="3.7" height="9.3"/>
		<rect x="472.1" y="231.9" class="st11" width="3.7" height="9.3"/>
		<rect x="472.1" y="248.6" class="st11" width="3.7" height="9.3"/>
		<rect x="472.1" y="266.4" class="st11" width="3.7" height="9.3"/>
		<rect x="487.8" y="178.6" class="st11" width="3.7" height="9.3"/>
		<rect x="487.8" y="196.4" class="st11" width="3.7" height="9.3"/>
		<rect x="487.8" y="214.1" class="st11" width="3.7" height="9.3"/>
		<rect x="487.8" y="231.9" class="st11" width="3.7" height="9.3"/>
		<rect x="487.8" y="248.6" class="st11" width="3.7" height="9.3"/>
		<rect x="487.8" y="266.4" class="st11" width="3.7" height="9.3"/>
		<rect x="503.5" y="178.6" class="st11" width="3.7" height="9.3"/>
		<rect x="503.5" y="196.4" class="st11" width="3.7" height="9.3"/>
		<rect x="503.5" y="214.1" class="st11" width="3.7" height="9.3"/>
		<rect x="503.5" y="231.9" class="st11" width="3.7" height="9.3"/>
		<rect x="503.5" y="248.6" class="st11" width="3.7" height="9.3"/>
		<rect x="503.5" y="266.4" class="st11" width="3.7" height="9.3"/>
		<rect x="519.2" y="178.6" class="st11" width="3.7" height="9.3"/>
		<rect x="519.2" y="196.4" class="st11" width="3.7" height="9.3"/>
		<rect x="519.2" y="214.1" class="st11" width="3.7" height="9.3"/>
		<rect x="519.2" y="231.9" class="st11" width="3.7" height="9.3"/>
		<rect x="519.2" y="248.6" class="st11" width="3.7" height="9.3"/>
		<rect x="519.2" y="266.4" class="st11" width="3.7" height="9.3"/>
		<rect x="413.2" y="49.2" class="st10" width="3" height="8.1"/>
		<rect x="420.7" y="49.2" class="st10" width="3" height="8.1"/>
		<rect x="428.2" y="49.2" class="st10" width="3" height="8.1"/>
		<rect x="435.7" y="49.2" class="st10" width="3" height="8.1"/>
		<rect x="413.2" y="62.7" class="st10" width="3" height="8.1"/>
		<rect x="420.7" y="62.7" class="st10" width="3" height="8.1"/>
		<rect x="428.2" y="62.7" class="st10" width="3" height="8.1"/>
		<rect x="435.7" y="62.7" class="st10" width="3" height="8.1"/>
		<rect x="413.2" y="76.2" class="st10" width="3" height="8.1"/>
		<rect x="420.7" y="76.2" class="st10" width="3" height="8.1"/>
		<rect x="444.2" y="49.2" class="st10" width="3" height="8.1"/>
		<rect x="210.4" y="131.5" class="st12" width="1.9" height="7.4"/>
		<rect x="217.2" y="131.5" class="st12" width="1.9" height="7.4"/>
		<rect x="225.2" y="131.5" class="st12" width="1.9" height="7.4"/>
		<rect x="232" y="131.5" class="st12" width="1.9" height="7.4"/>
		<rect x="195.2" y="131.5" class="st12" width="1.9" height="7.4"/>
		<rect x="202" y="131.5" class="st12" width="1.9" height="7.4"/>
		<rect x="210.4" y="144.4" class="st12" width="1.9" height="7.4"/>
		<rect x="217.2" y="144.4" class="st12" width="1.9" height="7.4"/>
		<rect x="225.2" y="144.4" class="st12" width="1.9" height="7.4"/>
		<rect x="232" y="144.4" class="st12" width="1.9" height="7.4"/>
		<rect x="195.2" y="144.4" class="st12" width="1.9" height="7.4"/>
		<rect x="202" y="144.4" class="st12" width="1.9" height="7.4"/>
		<rect x="210.4" y="157.3" class="st12" width="1.9" height="7.4"/>
		<rect x="217.2" y="157.3" class="st12" width="1.9" height="7.4"/>
		<rect x="225.2" y="157.3" class="st12" width="1.9" height="7.4"/>
		<rect x="232" y="157.3" class="st12" width="1.9" height="7.4"/>
		<rect x="195.2" y="157.3" class="st12" width="1.9" height="7.4"/>
		<rect x="202" y="157.3" class="st12" width="1.9" height="7.4"/>
		<rect x="571.8" y="188.5" class="st10" width="3" height="11.5"/>
		<rect x="581" y="188.5" class="st10" width="3" height="11.5"/>
		<rect x="589.6" y="188.5" class="st10" width="3" height="11.5"/>
		<rect x="778.5" y="190.9" class="st11" width="2.3" height="6.5"/>
		<rect x="785.7" y="190.9" class="st11" width="2.3" height="6.5"/>
		<rect x="778.5" y="190.9" class="st11" width="2.3" height="6.5"/>
		<rect x="785.7" y="190.9" class="st11" width="2.3" height="6.5"/>
		<rect x="792.4" y="190.9" class="st11" width="2.3" height="6.5"/>
		<rect x="799.6" y="190.9" class="st11" width="2.3" height="6.5"/>
		<rect x="778.5" y="202.6" class="st11" width="2.3" height="6.5"/>
		<rect x="785.7" y="202.6" class="st11" width="2.3" height="6.5"/>
		<rect x="778.5" y="202.6" class="st11" width="2.3" height="6.5"/>
		<rect x="785.7" y="202.6" class="st11" width="2.3" height="6.5"/>
		<rect x="792.4" y="202.6" class="st11" width="2.3" height="6.5"/>
		<rect x="799.6" y="202.6" class="st11" width="2.3" height="6.5"/>
		<rect x="778.5" y="215" class="st11" width="2.3" height="6.5"/>
		<rect x="785.7" y="215" class="st11" width="2.3" height="6.5"/>
		<rect x="778.5" y="215" class="st11" width="2.3" height="6.5"/>
		<rect x="785.7" y="215" class="st11" width="2.3" height="6.5"/>
		<rect x="792.4" y="215" class="st11" width="2.3" height="6.5"/>
		<rect x="799.6" y="215" class="st11" width="2.3" height="6.5"/>
		<rect x="807.4" y="190.9" class="st11" width="2.3" height="6.5"/>
		<rect x="807.4" y="202.6" class="st11" width="2.3" height="6.5"/>
		<rect x="814.5" y="190.9" class="st11" width="2.3" height="6.5"/>
		<rect x="600.7" y="171.7" class="st11" width="2.4" height="10.1"/>
		<rect x="612.8" y="171.7" class="st11" width="2.4" height="10.1"/>
		<rect x="625" y="171.7" class="st11" width="2.4" height="10.1"/>
		<rect x="637.2" y="171.7" class="st11" width="2.4" height="10.1"/>
		<rect x="600.7" y="192.5" class="st11" width="2.4" height="10.1"/>
		<rect x="612.8" y="192.5" class="st11" width="2.4" height="10.1"/>
		<rect x="625" y="192.5" class="st11" width="2.4" height="10.1"/>
		<rect x="637.2" y="192.5" class="st11" width="2.4" height="10.1"/>
		<rect x="600.7" y="213.9" class="st11" width="2.4" height="10.1"/>
		<rect x="612.8" y="213.9" class="st11" width="2.4" height="10.1"/>
		<rect x="625" y="213.9" class="st11" width="2.4" height="10.1"/>
		<rect x="637.2" y="213.9" class="st11" width="2.4" height="10.1"/>
		<rect x="600.7" y="235.2" class="st11" width="2.4" height="10.1"/>
		<rect x="612.8" y="235.2" class="st11" width="2.4" height="10.1"/>
		<rect x="625" y="235.2" class="st11" width="2.4" height="10.1"/>
		<rect x="637.2" y="235.2" class="st11" width="2.4" height="10.1"/>
		<rect x="600.7" y="254.6" class="st11" width="2.4" height="10.1"/>
		<rect x="612.8" y="254.6" class="st11" width="2.4" height="10.1"/>
		<rect x="625" y="254.6" class="st11" width="2.4" height="10.1"/>
		<rect x="600.7" y="276.3" class="st11" width="2.4" height="10.1"/>
		<rect x="612.8" y="276.3" class="st11" width="2.4" height="10.1"/>
		<rect x="625" y="276.3" class="st11" width="2.4" height="10.1"/>
		<rect x="637.2" y="254.6" class="st11" width="2.4" height="10.1"/>
		<rect x="877.4" y="225.2" class="st11" width="2.5" height="5.8"/>
		<rect x="877.4" y="234.6" class="st11" width="2.5" height="5.8"/>
		<rect x="883.8" y="225.2" class="st11" width="2.5" height="5.8"/>
	</g>
</g>
</svg>
