<?xml version="1.0" encoding="utf-8"?>
<!-- Generator: Adobe Illustrator 26.1.0, SVG Export Plug-In . SVG Version: 6.00 Build 0)  -->
<svg version="1.1" id="Layer_1" xmlns="http://www.w3.org/2000/svg" xmlns:xlink="http://www.w3.org/1999/xlink" x="0px" y="0px"
	 viewBox="0 0 141.7 141.7" style="enable-background:new 0 0 141.7 141.7;" xml:space="preserve">
<style type="text/css">
	.st0{fill:#4EA78A;}
	.st1{fill:#F2C971;}
	.st2{fill:#E0E0DF;}
	.st3{fill:#A79267;}
</style>
<g>
	<path class="st0" d="M119.2,47.6H18.7c-4.8,0-8.7,3.5-8.7,7.8v59.2c0,4.3,3.9,7.8,8.7,7.8h100.5c4.8,0,8.7-3.5,8.7-7.8V55.4
		C127.9,51.1,124,47.6,119.2,47.6z"/>
	<g>
		<path class="st1" d="M119,52.9c1.8,0,3.3,1.3,3.3,2.9v58.4c0,1.6-1.5,2.9-3.3,2.9H31c-1.8,0-3.3-1.3-3.3-2.9V55.8
			c0-1.6,1.5-2.9,3.3-2.9C31,52.9,119,52.9,119,52.9z"/>
	</g>
	<path class="st2" d="M127.9,73.2v4H56.9c-0.1-0.2-0.2-0.5-0.1-0.7c0,0,0-0.1,0-0.1l0.8-3.2L127.9,73.2L127.9,73.2z"/>
	<g>
		<path class="st0" d="M40.7,86.2h-9.8c-0.7,0-1.2-0.5-1.2-1.2s0.5-1.2,1.2-1.2h9.8c0.7,0,1.2,0.5,1.2,1.2
			C41.8,85.6,41.3,86.2,40.7,86.2z"/>
	</g>
	<path class="st3" d="M117,24.2c0,1.3-0.4,2.6-1.4,3.5l-19,19L70.9,72.4L69.3,74c-0.2,0.2-0.4,0.4-0.7,0.5c-0.3,0.2-0.6,0.3-0.9,0.3
		l-0.3,0.1l-6.1,1.5l-1.2,0.3l-1.8,0.4c-0.6,0.2-1.2-0.2-1.5-0.8c-0.1-0.2-0.2-0.5-0.1-0.7c0,0,0-0.1,0-0.1l0.8-3.2h0l0.5-1.9
		l1.1-4.3c0.1-0.3,0.2-0.6,0.3-0.9c0.1-0.2,0.3-0.5,0.5-0.7L78,46.8l28.3-28.3c2.2-2.2,5.5-2.2,8.5,0.8c0.5,0.5,0.9,1.1,1.3,1.7
		c0.2,0.3,0.3,0.6,0.4,0.9c0.1,0.1,0.1,0.2,0.1,0.4c0.1,0.1,0.1,0.3,0.1,0.4c0,0.1,0.1,0.2,0.1,0.3c0,0,0,0.1,0,0.1
		c0,0.1,0,0.2,0.1,0.2c0,0.1,0,0.2,0,0.2c0,0.1,0,0.2,0,0.4C116.9,24,117,24.1,117,24.2z"/>
	<g>
		<path class="st2" d="M116.5,21.6L60.7,77.5l7.6-1.9c0.6-0.2,1.1-0.4,1.5-0.9L116,28.5C117.7,26.8,117.9,24,116.5,21.6z"/>
	</g>
	<path class="st2" d="M68.5,74.9l-0.9,0.2l-0.3,0.1l-6.1,1.5L60,77l-1.8,0.4c-0.6,0.2-1.2-0.2-1.5-0.8c-0.1-0.2-0.2-0.5-0.1-0.7
		l0.8-3.3l0.5-1.9l1.3-5.2l0,0l0,0c0,0,0.1,0,0.1,0c2,0.6,4.8,2.9,6.8,5.3c0.5,0.6,1,1.2,1.3,1.8c0.5,0.8,0.8,1.5,1,2.1
		C68.5,74.8,68.5,74.8,68.5,74.9z"/>
</g>
</svg>
