<?xml version="1.0" encoding="utf-8"?>
<!-- Generator: Adobe Illustrator 26.1.0, SVG Export Plug-In . SVG Version: 6.00 Build 0)  -->
<svg version="1.1" id="Layer_1" xmlns="http://www.w3.org/2000/svg" xmlns:xlink="http://www.w3.org/1999/xlink" x="0px" y="0px"
	 viewBox="0 0 64 64" style="enable-background:new 0 0 64 64;" xml:space="preserve">
<style type="text/css">
	.st0{fill-rule:evenodd;clip-rule:evenodd;fill:#4BAA8E;}
</style>
<path class="st0" d="M23.7,32.4v30.8c0,0.4,0.4,0.8,0.8,0.8h11.5c0.4,0,0.8-0.4,0.8-0.8V31.9h8.4c0.4,0,0.8-0.3,0.8-0.7l0.8-9.4
	c0-0.5-0.3-0.9-0.8-0.9h-9.2v-6.7c0-1.6,1.3-2.8,2.9-2.8h6.5c0.4,0,0.8-0.4,0.8-0.8V1.1c0-0.4-0.4-0.8-0.8-0.8H35.3
	c-6.4,0-11.6,5.1-11.6,11.5v9.1H18c-0.4,0-0.8,0.4-0.8,0.8v9.4c0,0.4,0.4,0.8,0.8,0.8h5.8V32.4z"/>
</svg>
