<?xml version="1.0" encoding="utf-8"?>
<!-- Generator: Adobe Illustrator 26.1.0, SVG Export Plug-In . SVG Version: 6.00 Build 0)  -->
<svg version="1.1" id="Layer_1" xmlns="http://www.w3.org/2000/svg" xmlns:xlink="http://www.w3.org/1999/xlink" x="0px" y="0px"
	 viewBox="0 0 1140 400" style="enable-background:new 0 0 1140 400;" xml:space="preserve">
<style type="text/css">
	.st0{fill:#F1E8DF;}
	.st1{opacity:0.11;}
	.st2{opacity:0.83;}
	.st3{fill:#453632;}
</style>
<rect x="1.3" y="1" class="st0" width="1140.2" height="399.8"/>
<g class="st1">
	<g class="st2">
		<g>
			<path class="st3" d="M349,344.3l221.6,1.4l0-2.3L349,342.1c-73.1-0.5-132.5-42.8-132.4-94.3l0-6.4l-3.2,0l0,6.4
				C213.2,300.6,274.1,343.9,349,344.3z"/>
			<path class="st3" d="M349,336.8l221.6,1.4l0-2.3L349,334.5c-67.2-0.4-121.8-39.3-121.7-86.6l0-6.4l-3.2,0l0,6.4
				C224,296.5,280,336.3,349,336.8z"/>
			<path class="st3" d="M349,329.2l221.6,1.4l0-2.3L349,326.9c-61.3-0.4-111.1-35.8-111-79l0-6.4l-3.2,0l0,6.4
				C234.7,292.3,286,328.8,349,329.2z"/>
			<path class="st3" d="M349.1,321.6l221.6,1.4l0-2.3l-221.6-1.4C293.7,319,248.7,287,248.8,248l0-6.4l-3.2,0l0,6.4
				C245.5,288.2,291.9,321.3,349.1,321.6z"/>
			<path class="st3" d="M349.1,314.1l221.6,1.4l0-2.3l-221.6-1.4c-49.4-0.3-89.6-28.9-89.5-63.7l0-6.4l-3.2,0l0,6.4
				C256.2,284.1,297.9,313.8,349.1,314.1z"/>
			<path class="st3" d="M349.1,306.5l221.6,1.4l0-2.3l-221.6-1.4c-43.5-0.3-78.9-25.4-78.8-56.1l0-6.4l-3.2,0l0,6.4
				C267,280,303.8,306.2,349.1,306.5z"/>
			<path class="st3" d="M349.1,298.9l221.6,1.4l0-2.3l-221.6-1.4c-37.6-0.2-68.2-22-68.1-48.5l0-6.4l-3.2,0l0,6.4
				C277.7,275.9,309.7,298.7,349.1,298.9z"/>
			<path class="st3" d="M349.1,291.4l221.6,1.4l0-2.3l-221.6-1.4c-31.7-0.2-57.4-18.5-57.4-40.8l0-6.4l-3.2,0l0,6.4
				C288.5,271.8,315.7,291.2,349.1,291.4z"/>
			<path class="st3" d="M349.1,283.8l221.6,1.4l0-2.3l-221.6-1.4c-25.8-0.2-46.7-15.1-46.6-33.2l0-6.4l-3.2,0l0,6.4
				C299.2,267.7,321.6,283.6,349.1,283.8z"/>
			<path class="st3" d="M349.2,276.2l221.6,1.4l0-2.3L349.2,274c-19.8-0.1-36-11.6-35.9-25.6l0-6.4l-3.2,0l0,6.4
				C310,263.6,327.5,276.1,349.2,276.2z"/>
			<path class="st3" d="M349.2,268.7l221.6,1.4l0-2.3l-221.6-1.4c-13.9-0.1-25.2-8.1-25.2-17.9l0-6.4l-3.2,0l0,6.4
				C320.7,259.5,333.5,268.6,349.2,268.7z"/>
			<path class="st3" d="M349.2,261.1l221.6,1.4l0-2.3l-221.6-1.4c-8-0.1-14.5-4.7-14.5-10.3l0-6.4l-3.2,0l0,6.4
				C331.5,255.4,339.4,261.1,349.2,261.1z"/>
			<path class="st3" d="M570.6,351L349,349.6c-79.1-0.5-143.3-46.2-143.2-101.9l0-6.4l-3.2,0l0,6.4
				c-0.1,56.9,65.5,103.7,146.4,104.2l221.6,1.4L570.6,351z"/>
			<path class="st3" d="M188.4,105.9L1.5,104.7l0,2.3l186.9,1.2c79.1,0.5,143.3,46.2,143.2,101.9l-0.1,32.1l3.2,0l0.1-32.1
				C334.9,153.1,269.3,106.4,188.4,105.9z"/>
			<path class="st3" d="M188.4,113.4L1.5,112.2l0,2.3l186.9,1.2c73.1,0.5,132.5,42.8,132.4,94.3l-0.1,32.1l3.2,0l0.1-32.1
				C324.2,157.2,263.3,113.9,188.4,113.4z"/>
			<path class="st3" d="M188.4,121L1.5,119.8l0,2.3l186.9,1.2c67.2,0.4,121.8,39.3,121.7,86.6L310,242l3.2,0l0.1-32.1
				C313.4,161.3,257.4,121.4,188.4,121z"/>
			<path class="st3" d="M188.4,128.5L1.4,127.4l0,2.3l186.9,1.2c61.3,0.4,111.1,35.8,111,79l-0.1,32.1l3.2,0l0.1-32.1
				C302.7,165.4,251.4,128.9,188.4,128.5z"/>
			<path class="st3" d="M188.4,136.1L1.4,134.9l0,2.3l186.9,1.2c55.4,0.3,100.3,32.4,100.3,71.4l-0.1,32.1l3.2,0l0.1-32.1
				C291.9,169.5,245.5,136.5,188.4,136.1z"/>
			<path class="st3" d="M188.3,143.7L1.4,142.5l0,2.3l186.9,1.2c49.4,0.3,89.6,28.9,89.5,63.7l-0.1,32.1l3.2,0l0.1-32.1
				C281.2,173.6,239.6,144,188.3,143.7z"/>
			<path class="st3" d="M188.3,151.2L1.4,150.1l0,2.3l186.9,1.2c43.5,0.3,78.9,25.4,78.8,56.1l-0.1,32.1l3.2,0l0.1-32.1
				C270.4,177.7,233.6,151.5,188.3,151.2z"/>
			<path class="st3" d="M188.3,158.8L1.4,157.6l0,2.3l186.9,1.2c37.6,0.2,68.2,22,68.1,48.5l-0.1,32.1l3.2,0l0.1-32.1
				C259.7,181.8,227.7,159.1,188.3,158.8z"/>
			<path class="st3" d="M188.3,166.4L1.4,165.2l0,2.3l186.9,1.2c31.7,0.2,57.4,18.5,57.4,40.8l-0.1,32.1l3.2,0l0.1-32.1
				C248.9,185.9,221.8,166.6,188.3,166.4z"/>
			<path class="st3" d="M188.3,173.9L1.3,172.8l0,2.3l186.9,1.2c25.8,0.2,46.7,15.1,46.6,33.2l-0.1,32.1l3.2,0l0.1-32.1
				C238.2,190,215.8,174.1,188.3,173.9z"/>
			<path class="st3" d="M188.3,181.5L1.3,180.3l0,2.3l186.9,1.2c19.8,0.1,36,11.6,35.9,25.6l-0.1,32.1l3.2,0l0.1-32.1
				C227.4,194.1,209.9,181.6,188.3,181.5z"/>
			<path class="st3" d="M188.2,189.1L1.3,187.9l0,2.3l186.9,1.2c13.9,0.1,25.2,8.1,25.2,17.9l-0.1,32.1l3.2,0l0.1-32.1
				C216.7,198.3,203.9,189.2,188.2,189.1z"/>
			<path class="st3" d="M188.2,196.6L1.3,195.5l0,2.3l186.9,1.2c8,0.1,14.5,4.7,14.5,10.3l-0.1,32.1l3.2,0l0.1-32.1
				C205.9,202.4,198,196.7,188.2,196.6z"/>
		</g>
	</g>
	<g class="st2">
		<g>
			<path class="st3" d="M792.3,344.4l-221.6,1.4l0-2.3l221.6-1.4c73.1-0.5,132.5-42.8,132.4-94.3l0-6.4l3.2,0l0,6.4
				C928.1,300.6,867.2,343.9,792.3,344.4z"/>
			<path class="st3" d="M792.3,336.8l-221.6,1.4l0-2.3l221.6-1.4c67.2-0.4,121.8-39.3,121.7-86.6l0-6.4l3.2,0l0,6.4
				C917.3,296.5,861.3,336.4,792.3,336.8z"/>
			<path class="st3" d="M792.3,329.2l-221.6,1.4l0-2.3l221.6-1.4c61.3-0.4,111.1-35.8,111-79l0-6.4l3.2,0l0,6.4
				C906.6,292.4,855.4,328.8,792.3,329.2z"/>
			<path class="st3" d="M792.3,321.7L570.7,323l0-2.3l221.6-1.4C847.6,319,892.6,287,892.5,248l0-6.4l3.2,0l0,6.4
				C895.8,288.3,849.4,321.3,792.3,321.7z"/>
			<path class="st3" d="M792.3,314.1l-221.6,1.4l0-2.3l221.6-1.4c49.4-0.3,89.6-28.9,89.5-63.7l0-6.4l3.2,0l0,6.4
				C885.1,284.1,843.5,313.8,792.3,314.1z"/>
			<path class="st3" d="M792.2,306.5l-221.6,1.4l0-2.3l221.6-1.4c43.5-0.3,78.9-25.4,78.8-56.1l0-6.4l3.2,0l0,6.4
				C874.3,280,837.5,306.2,792.2,306.5z"/>
			<path class="st3" d="M792.2,299l-221.6,1.4l0-2.3l221.6-1.4c37.6-0.2,68.2-22,68.1-48.5l0-6.4l3.2,0l0,6.4
				C863.6,275.9,831.6,298.7,792.2,299z"/>
			<path class="st3" d="M792.2,291.4l-221.6,1.4l0-2.3l221.6-1.4c31.7-0.2,57.4-18.5,57.4-40.8l0-6.4l3.2,0l0,6.4
				C852.9,271.8,825.7,291.2,792.2,291.4z"/>
			<path class="st3" d="M792.2,283.8l-221.6,1.4l0-2.3l221.6-1.4c25.8-0.2,46.7-15.1,46.6-33.2l0-6.4l3.2,0l0,6.4
				C842.1,267.7,819.7,283.7,792.2,283.8z"/>
			<path class="st3" d="M792.2,276.3l-221.6,1.4l0-2.3l221.6-1.4c19.8-0.1,36-11.6,35.9-25.6l0-6.4l3.2,0l0,6.4
				C831.4,263.6,813.8,276.1,792.2,276.3z"/>
			<path class="st3" d="M792.2,268.7l-221.6,1.4l0-2.3l221.6-1.4c13.9-0.1,25.2-8.1,25.2-17.9l0-6.4l3.2,0l0,6.4
				C820.6,259.5,807.9,268.6,792.2,268.7z"/>
			<path class="st3" d="M792.1,261.1l-221.6,1.4l0-2.3l221.6-1.4c8-0.1,14.5-4.7,14.5-10.3l0-6.4l3.2,0l0,6.4
				C809.9,255.4,801.9,261.1,792.1,261.1z"/>
			<path class="st3" d="M570.7,351l221.6-1.4c79.1-0.5,143.3-46.2,143.2-101.9l0-6.4l3.2,0l0,6.4c0.1,56.9-65.5,103.7-146.4,104.2
				l-221.6,1.4L570.7,351z"/>
			<path class="st3" d="M952.9,105.9l186.9-1.2l0,2.3l-186.9,1.2c-79.1,0.5-143.3,46.2-143.2,101.9l0.1,32.1l-3.2,0l-0.1-32.1
				C806.4,153.1,872.1,106.4,952.9,105.9z"/>
			<path class="st3" d="M952.9,113.4l186.9-1.2l0,2.3l-186.9,1.2c-73.1,0.5-132.5,42.8-132.4,94.3l0.1,32.1l-3.2,0l-0.1-32.1
				C817.2,157.2,878,113.9,952.9,113.4z"/>
			<path class="st3" d="M952.9,121l186.9-1.2l0,2.3L953,123.3c-67.2,0.4-121.8,39.3-121.7,86.6l0.1,32.1l-3.2,0l-0.1-32.1
				C827.9,161.3,884,121.4,952.9,121z"/>
			<path class="st3" d="M953,128.6l186.9-1.2l0,2.3L953,130.8c-61.3,0.4-111.1,35.8-111,79l0.1,32.1l-3.2,0l-0.1-32.1
				C838.7,165.4,889.9,129,953,128.6z"/>
			<path class="st3" d="M953,136.1l186.9-1.2l0,2.3L953,138.4c-55.4,0.3-100.3,32.4-100.3,71.4l0.1,32.1l-3.2,0l-0.1-32.1
				C849.4,169.5,895.8,136.5,953,136.1z"/>
			<path class="st3" d="M953,143.7l186.9-1.2l0,2.3L953,146c-49.4,0.3-89.6,28.9-89.5,63.7l0.1,32.1l-3.2,0l-0.1-32.1
				C860.2,173.6,901.8,144,953,143.7z"/>
			<path class="st3" d="M953,151.3l186.9-1.2l0,2.3L953,153.5c-43.5,0.3-78.9,25.4-78.8,56.1l0.1,32.1l-3.2,0l-0.1-32.1
				C870.9,177.7,907.7,151.5,953,151.3z"/>
			<path class="st3" d="M953,158.8l186.9-1.2l0,2.3L953,161.1c-37.6,0.2-68.2,22-68.1,48.5l0.1,32.1l-3.2,0l-0.1-32.1
				C881.7,181.8,913.6,159.1,953,158.8z"/>
			<path class="st3" d="M953,166.4l186.9-1.2l0,2.3L953,168.7c-31.7,0.2-57.4,18.5-57.4,40.8l0.1,32.1l-3.2,0l-0.1-32.1
				C892.4,185.9,919.6,166.6,953,166.4z"/>
			<path class="st3" d="M953.1,174l186.9-1.2l0,2.3l-186.9,1.2c-25.8,0.2-46.7,15.1-46.6,33.2l0.1,32.1l-3.2,0l-0.1-32.1
				C903.2,190.1,925.5,174.1,953.1,174z"/>
			<path class="st3" d="M953.1,181.5l186.9-1.2l0,2.3l-186.9,1.2c-19.8,0.1-36,11.6-35.9,25.6l0.1,32.1l-3.2,0l-0.1-32.1
				C913.9,194.2,931.5,181.7,953.1,181.5z"/>
			<path class="st3" d="M953.1,189.1l186.9-1.2l0,2.3l-186.9,1.2c-13.9,0.1-25.2,8.1-25.2,17.9l0.1,32.1l-3.2,0l-0.1-32.1
				C924.7,198.3,937.4,189.2,953.1,189.1z"/>
			<path class="st3" d="M953.1,196.7l186.9-1.2l0,2.3l-186.9,1.2c-8,0.1-14.5,4.7-14.5,10.3l0.1,32.1l-3.2,0l-0.1-32.1
				C935.4,202.4,943.3,196.7,953.1,196.7z"/>
		</g>
	</g>
</g>
</svg>
