<?xml version="1.0" encoding="utf-8"?>
<!-- Generator: Adobe Illustrator 26.1.0, SVG Export Plug-In . SVG Version: 6.00 Build 0)  -->
<svg version="1.1" id="Layer_1" xmlns="http://www.w3.org/2000/svg" xmlns:xlink="http://www.w3.org/1999/xlink" x="0px" y="0px"
	 viewBox="0 0 1200 600" style="enable-background:new 0 0 1200 600;" xml:space="preserve">
<style type="text/css">
	.st0{fill:#F1E8DF;}
	.st1{fill:#453632;}
</style>
<g>
	<g>
		<g>
			
				<rect x="0.6" y="-1.8" transform="matrix(1 -3.286097e-03 3.286097e-03 1 -0.9803 1.9875)" class="st0" width="1207.4" height="602.2"/>
		</g>
	</g>
</g>
<path class="st1" d="M904.5,599.4l6.8,0L911,500l297.7-1l0-4.5l-599,2c-167.6,0.6-304.2-89.7-304.6-201.1l0-10.4l15.9-0.1l0,10.4
	c0.3,105.6,129.8,191.1,288.6,190.6l599-2l0-4.5l-599,2c-155,0.5-281.4-83-281.8-186l0-10.4l15.9-0.1l0,10.4
	c0.3,97.3,119.6,176,265.8,175.5l599-2l0-4.5l-599,2c-142.5,0.5-258.6-76.2-258.9-171l0-10.4l15.9-0.1l0,10.4
	c0.3,88.9,109.3,160.9,243,160.4l599-2l0-4.5l-599,2c-129.9,0.4-235.8-69.5-236.1-155.9l0-10.4l15.9-0.1l0,10.4
	c0.3,80.6,99,145.8,220.2,145.4l599-2l0-4.5l-599,2C492.1,436.2,396.5,373,396.2,295l0-10.4l15.9-0.1l0,10.4
	c0.2,72.2,88.8,130.7,197.3,130.3l599-2l0-4.5l-599,2C504.7,421,419.2,364.6,419,294.9l0-10.4l15.9-0.1l0,10.4
	c0.2,63.9,78.5,115.6,174.5,115.2l599-2l0-4.5l-599,2c-92.3,0.3-167.5-49.4-167.7-110.7l0-10.4l15.9-0.1l0,10.4
	c0.2,55.5,68.2,100.5,151.7,100.2l599-2l0-4.5l-599,2c-79.7,0.3-144.7-42.7-144.9-95.7l0-10.4l15.9-0.1l0,10.4
	c0.2,47.2,58,85.3,128.9,85.1l599-2l0-4.5l-599,2c-67.2,0.2-121.9-35.9-122.1-80.6l0-10.4l15.9-0.1l0,10.4
	c0.1,38.8,47.7,70.2,106.1,70.1l599-2l0-4.5l-599,2c-54.6,0.2-99.1-29.2-99.2-65.5l0-10.4l15.9-0.1l0,10.4
	c0.1,30.5,37.5,55.1,83.3,55l599-2l0-4.5l-599,2c-42.1,0.1-76.3-22.5-76.4-50.5l0-10.4l15.9-0.1l0,10.4c0.1,22.1,27.2,40,60.5,39.9
	l599-2l0-4.5l-599,2c-29.5,0.1-53.5-15.8-53.6-35.4l0-10.4l15.9-0.1l0,10.4c0,13.8,16.9,24.9,37.6,24.9l599-2l0-4.5l-297.7,1l0-10.4
	C910,189.3,770.3,97.1,599,97.7l-21.3,0.1l-0.3-99.5l-6.8,0l0.3,99.5l-15.9,0.1l-0.3-99.5l-6.8,0l0.3,99.5l-15.9,0.1l-0.3-99.5
	l-6.8,0l0.3,99.5L509.4,98L509-1.5l-6.8,0l0.3,99.5L486.6,98l-0.3-99.5l-6.8,0l0.3,99.5l-15.9,0.1l-0.3-99.5l-6.8,0l0.3,99.5
	l-15.9,0.1l-0.3-99.5l-6.8,0l0.3,99.5l-15.9,0.1L418-1.2l-6.8,0l0.3,99.5l-15.9,0.1l-0.3-99.5l-6.8,0l0.3,99.5l-15.9,0.1l-0.3-99.5
	l-6.8,0l0.3,99.5L350,98.5L349.7-1l-6.8,0l0.3,99.5l-15.9,0.1l-0.3-99.5l-6.8,0l0.3,99.5l-15.9,0.1l-0.3-99.5l-6.8,0l0.3,99.5
	L0,99.6l0,4.5l599-2c167.6-0.6,304.2,89.7,304.6,201.1l0,10.4l-15.9,0.1l0-10.4C887.3,197.8,757.8,112.3,599,112.8l-599,2l0,4.5
	l599-2c155-0.5,281.4,83,281.8,186l0,10.4l-15.9,0.1l0-10.4c-0.3-97.3-119.6-176-265.8-175.5l-599,2l0,4.5l599-2
	c142.5-0.5,258.6,76.2,258.9,171l0,10.4l-15.9,0.1l0-10.4c-0.3-88.9-109.3-160.9-243-160.4l-599,2l0,4.5l599-2
	C729,147.2,835,217.1,835.2,303.5l0,10.4l-15.9,0.1l0-10.4c-0.3-80.6-99-145.8-220.2-145.4l-599,2l0,4.5l599-2
	c117.4-0.4,213.1,62.8,213.3,140.9l0,10.4l-15.9,0.1l0-10.4c-0.2-72.2-88.8-130.7-197.3-130.3l-599,2l0,4.5l599-2
	C704,177.6,789.5,234,789.7,303.7l0,10.4l-15.9,0.1l0-10.4c-0.2-63.9-78.5-115.6-174.5-115.2l-599,2l0,4.5l599-2
	c92.3-0.3,167.5,49.4,167.7,110.7l0,10.4l-15.9,0.1l0-10.4c-0.2-55.5-68.2-100.5-151.7-100.2l-599,2l0,4.5l599-2
	c79.7-0.3,144.7,42.7,144.9,95.7l0,10.4l-15.9,0.1l0-10.4c-0.2-47.2-58-85.3-128.9-85.1l-599,2l0,4.5l599-2
	c67.2-0.2,121.9,35.9,122.1,80.6l0,10.4l-15.9,0.1l0-10.4c-0.1-38.8-47.7-70.2-106.1-70.1l-599,2l0,4.5l599-2
	c54.6-0.2,99.1,29.2,99.2,65.5l0,10.4l-15.9,0.1l0-10.4c-0.1-30.5-37.5-55.1-83.3-55l-599,2l0,4.5l599-2
	c42.1-0.1,76.3,22.5,76.4,50.5l0,10.4l-15.9,0.1l0-10.4c-0.1-22.1-27.2-40-60.5-39.9l-599,2l0,4.5l599-2
	c29.5-0.1,53.5,15.8,53.6,35.4l0,10.4l-15.9,0.1l0-10.4c0-13.8-16.9-24.9-37.6-24.9l-599,2l0,4.5l297.7-1l0,10.4
	c0.4,113.9,140.1,206.2,311.4,205.6l21.3-0.1l0.3,99.5l6.8,0l-0.3-99.5l15.9-0.1l0.3,99.5l6.8,0l-0.3-99.5l15.9-0.1l0.3,99.5l6.8,0
	l-0.3-99.5l15.9-0.1l0.3,99.5l6.8,0l-0.3-99.5l15.9-0.1l0.3,99.5l6.8,0l-0.3-99.5l15.9-0.1l0.3,99.5l6.8,0l-0.3-99.5l15.9-0.1
	l0.3,99.5l6.8,0l-0.3-99.5l15.9-0.1l0.3,99.5l6.8,0l-0.3-99.5l15.9-0.1l0.3,99.5l6.8,0l-0.3-99.5l15.9-0.1l0.3,99.5l6.8,0l-0.3-99.5
	l15.9-0.1l0.3,99.5l6.8,0l-0.3-99.5l15.9-0.1l0.3,99.5l6.8,0l-0.3-99.5l15.9-0.1L904.5,599.4z M599.6,283.9
	c16.9-0.1,30.8,9.1,30.8,20.3l0,10.4l-21.3,0.1c-16.9,0.1-30.8-9.1-30.8-20.3l0-10.4L599.6,283.9z"/>
</svg>
