<?xml version="1.0" encoding="utf-8"?>
<!-- Generator: Adobe Illustrator 26.1.0, SVG Export Plug-In . SVG Version: 6.00 Build 0)  -->
<svg version="1.1" id="Layer_1" xmlns="http://www.w3.org/2000/svg" xmlns:xlink="http://www.w3.org/1999/xlink" x="0px" y="0px"
	 viewBox="0 0 64 64" style="enable-background:new 0 0 64 64;" xml:space="preserve">
<style type="text/css">
	.st0{fill:#4BAA8E;}
</style>
<path class="st0" d="M52.8,15.1c0,2.1-1.7,3.7-3.7,3.7c-2.1,0-3.7-1.7-3.7-3.7s1.7-3.7,3.7-3.7C51.2,11.4,52.8,13,52.8,15.1z
	 M48.2,31.7c0,8.6-7,15.6-15.6,15.6c-8.6,0-15.6-7-15.6-15.6c0-8.6,7-15.6,15.6-15.6C41.2,16.1,48.2,23.1,48.2,31.7z M42.6,31.7
	c0-5.5-4.5-10-10-10c-5.5,0-10,4.5-10,10c0,5.5,4.5,10,10,10C38.1,41.7,42.6,37.2,42.6,31.7z M64.2,19.2c0-10.5-8.5-19-19-19h-26
	c-10.5,0-19,8.5-19,19v26c0,10.5,8.5,19,19,19h26c10.5,0,19-8.5,19-19V19.2z M57.9,44.9c0,7.2-5.9,13.1-13.1,13.1H19.5
	c-7.2,0-13.1-5.8-13.1-13.1V19.5c0-7.2,5.8-13.1,13.1-13.1h25.4c7.2,0,13.1,5.8,13.1,13.1V44.9z"/>
</svg>
