<?xml version="1.0" encoding="utf-8"?>
<!-- Generator: Adobe Illustrator 26.1.0, SVG Export Plug-In . SVG Version: 6.00 Build 0)  -->
<svg version="1.1" id="Layer_1" xmlns="http://www.w3.org/2000/svg" xmlns:xlink="http://www.w3.org/1999/xlink" x="0px" y="0px"
	 viewBox="0 0 1920 1920" style="enable-background:new 0 0 1920 1920;" xml:space="preserve">
<style type="text/css">
	.st0{fill:#CC97CE;stroke:#323941;stroke-width:0.25;stroke-linecap:round;stroke-linejoin:round;stroke-miterlimit:10;}
	.st1{fill:none;stroke:#323941;stroke-width:20;stroke-linecap:round;stroke-linejoin:round;stroke-miterlimit:10;}
	.st2{fill:#323941;}
	.st3{font-family:'Charcoal';}
	.st4{font-size:145.3821px;}
	.st5{letter-spacing:4;}
	.st6{fill:#323941;stroke:#323941;stroke-width:0.25;stroke-linecap:round;stroke-linejoin:round;stroke-miterlimit:10;}
	.st7{font-family:'AntipastoPro-DemiBold';}
	.st8{font-size:83.5943px;}
	.st9{letter-spacing:8;}
</style>
<rect x="310.2" y="1114.9" class="st0" width="1289.1" height="158.7"/>
<g>
	<g>
		<polyline class="st1" points="856.4,1063.8 856.4,596.2 962.9,329.8 1069.4,596.2 1069.4,1063.8 		"/>
		<path class="st1" d="M856.4,596.2c5.6,14.1,19.4,24.1,35.5,24.1c16.1,0,29.9-10,35.5-24.1c5.6,14.1,19.4,24.1,35.5,24.1
			c16.1,0,29.9-10,35.5-24.1c5.6,14.1,19.4,24.1,35.5,24.1c16.1,0,29.9-10,35.5-24.1"/>
		<line class="st1" x1="916.9" y1="444.9" x2="1009" y2="444.9"/>
		<line class="st1" x1="927.4" y1="596.2" x2="927.4" y2="1063.8"/>
		<line class="st1" x1="998.4" y1="596.2" x2="998.4" y2="1063.8"/>
	</g>
	<g>
		<polyline class="st1" points="568.5,1063.8 568.5,743.4 781.5,743.4 781.5,1063.8 		"/>
		<line class="st1" x1="675" y1="477" x2="675" y2="549.7"/>
		<polyline class="st1" points="583.8,743.4 675,549.7 766.2,743.4 		"/>
	</g>
	<g>
		<g>
			<polyline class="st1" points="1144.4,1063.8 1160.5,915.5 1341.2,915.5 1357.4,1063.8 			"/>
			<polyline class="st1" points="1284.7,767.2 1341.2,915.5 1160.5,915.5 1217,767.2 			"/>
			<path class="st1" d="M1337.6,703.2c-11.6,45.3-57.8,72.6-103.1,61c-45.3-11.6-78.7-51.5-73.1-116.5
				c8.9-102.3,79.5-162.1,146.7-170.7C1223.9,602.3,1363.9,600.7,1337.6,703.2z"/>
		</g>
		<line class="st1" x1="1198.1" y1="915.5" x2="1187.6" y2="1063.8"/>
	</g>
</g>
<line class="st1" x1="331.8" y1="1063.8" x2="1594" y2="1063.8"/>
<text transform="matrix(1 0 0 1 325.933 1247.6635)"><tspan x="0" y="0" class="st2 st3 st4 st5">CREATIV</tspan><tspan x="632.9" y="0" class="st2 st3 st4">E STUDIO</tspan></text>
<g>
	<text transform="matrix(1 0 0 1 493.2211 1365.1683)" class="st6 st7 st8 st9">creatividad en píxeles</text>
</g>
</svg>
