<?xml version="1.0" encoding="utf-8"?>
<!-- Generator: Adobe Illustrator 26.1.0, SVG Export Plug-In . SVG Version: 6.00 Build 0)  -->
<svg version="1.1" id="Layer_1" xmlns="http://www.w3.org/2000/svg" xmlns:xlink="http://www.w3.org/1999/xlink" x="0px" y="0px"
	 viewBox="0 0 64 64" style="enable-background:new 0 0 64 64;" xml:space="preserve">
<style type="text/css">
	.st0{display:none;opacity:0.8;fill:url(#SVGID_1_);enable-background:new    ;}
	.st1{fill-rule:evenodd;clip-rule:evenodd;fill:#4BAA8E;}
</style>
<g>
	
		<radialGradient id="SVGID_1_" cx="29.92" cy="33.61" r="28.6" gradientTransform="matrix(1 0 0 -1 0 66)" gradientUnits="userSpaceOnUse">
		<stop  offset="0" style="stop-color:#000057"/>
		<stop  offset="0.2482" style="stop-color:#4C4C89;stop-opacity:0.7518"/>
		<stop  offset="0.5193" style="stop-color:#9898BB;stop-opacity:0.4807"/>
		<stop  offset="0.744" style="stop-color:#D0D0E0;stop-opacity:0.256"/>
		<stop  offset="0.9103" style="stop-color:#F2F2F6;stop-opacity:8.970000e-02"/>
		<stop  offset="1" style="stop-color:#FFFFFF;stop-opacity:0"/>
	</radialGradient>
	<circle class="st0" cx="29.9" cy="32.4" r="28.6"/>
</g>
<path class="st1" d="M28.2,41.8c-0.1,0.2-0.1,0.3-0.1,0.5c-2.3,9.2-2.6,11.2-5,15.5c-1.1,2-2.4,3.9-3.9,5.8
	c-0.2,0.2-0.3,0.5-0.6,0.4c-0.4-0.1-0.4-0.4-0.4-0.7c-0.4-2.8-0.6-5.6-0.5-8.4c0.1-3.7,0.6-4.9,5.3-24.8c0.1-0.3,0-0.6-0.1-0.8
	c-1.1-3.1-1.4-6.1-0.4-9.3c2.1-6.8,9.8-7.3,11.2-1.7c0.8,3.5-1.4,8-3,14.7c-1.4,5.5,5.1,9.4,10.7,5.4c5.1-3.7,7.1-12.6,6.7-18.9
	C47.2,6.8,33.4,4.1,24.7,8.2c-10,4.6-12.3,17.1-7.8,22.8c0.6,0.7,1,1.2,0.8,1.9c-0.3,1.1-0.5,2.3-0.9,3.4c-0.2,0.8-0.9,1.1-1.8,0.8
	c-1.7-0.7-3.1-1.7-4.2-3.1C7,29.1,5.9,19.7,11,11.7C16.7,2.9,27.1-0.7,36.7,0.4c11.4,1.3,18.7,9.1,20,18c0.6,4,0.2,14-5.5,21
	c-6.5,8.1-17.1,8.6-22,3.7C28.9,42.7,28.6,42.2,28.2,41.8z"/>
</svg>
